<mxfile host="app.diagrams.net" agent="Mozilla/5.0 (Windows NT 10.0; Win64; x64) AppleWebKit/537.36 (KHTML, like Gecko) Chrome/138.0.0.0 Safari/537.36" version="28.0.7">
  <diagram name="Страница — 1" id="j5qTFyfixeInwJt3up1n">
    <mxGraphModel dx="1228" dy="598" grid="1" gridSize="10" guides="1" tooltips="1" connect="1" arrows="1" fold="1" page="1" pageScale="1" pageWidth="827" pageHeight="1169" math="0" shadow="0">
      <root>
        <mxCell id="0" />
        <mxCell id="1" parent="0" />
        <mxCell id="NNQvk0gvoKjI3-_BctcQ-9" value="" style="rounded=1;whiteSpace=wrap;html=1;arcSize=4;fillColor=#d5e8d4;strokeColor=#82b366;" vertex="1" parent="1">
          <mxGeometry x="830" y="1230" width="780" height="420" as="geometry" />
        </mxCell>
        <mxCell id="NNQvk0gvoKjI3-_BctcQ-7" value="" style="rounded=1;whiteSpace=wrap;html=1;arcSize=5;fillColor=#fff2cc;strokeColor=#d6b656;" vertex="1" parent="1">
          <mxGeometry x="830" y="950" width="780" height="250" as="geometry" />
        </mxCell>
        <mxCell id="NNQvk0gvoKjI3-_BctcQ-5" value="" style="rounded=1;whiteSpace=wrap;html=1;arcSize=5;fillColor=#ffe6cc;strokeColor=#d79b00;" vertex="1" parent="1">
          <mxGeometry x="830" y="670" width="780" height="240" as="geometry" />
        </mxCell>
        <mxCell id="NNQvk0gvoKjI3-_BctcQ-3" value="" style="rounded=1;whiteSpace=wrap;html=1;arcSize=2;fillColor=#f8cecc;strokeColor=#b85450;" vertex="1" parent="1">
          <mxGeometry x="830" y="30" width="780" height="610" as="geometry" />
        </mxCell>
        <mxCell id="bXfNXzeBsrkcsJw6JNFF-11" style="edgeStyle=orthogonalEdgeStyle;rounded=0;orthogonalLoop=1;jettySize=auto;html=1;exitX=1;exitY=0.5;exitDx=0;exitDy=0;entryX=0;entryY=0.5;entryDx=0;entryDy=0;" parent="1" source="bXfNXzeBsrkcsJw6JNFF-1" target="bXfNXzeBsrkcsJw6JNFF-2" edge="1">
          <mxGeometry relative="1" as="geometry" />
        </mxCell>
        <mxCell id="bXfNXzeBsrkcsJw6JNFF-1" value="Что такое ИИ / ML / DL" style="rounded=1;whiteSpace=wrap;html=1;" parent="1" vertex="1">
          <mxGeometry x="160" y="40" width="160" height="40" as="geometry" />
        </mxCell>
        <mxCell id="bXfNXzeBsrkcsJw6JNFF-5" style="edgeStyle=orthogonalEdgeStyle;rounded=0;orthogonalLoop=1;jettySize=auto;html=1;exitX=0.5;exitY=1;exitDx=0;exitDy=0;entryX=0.5;entryY=0;entryDx=0;entryDy=0;" parent="1" source="bXfNXzeBsrkcsJw6JNFF-2" target="bXfNXzeBsrkcsJw6JNFF-4" edge="1">
          <mxGeometry relative="1" as="geometry" />
        </mxCell>
        <mxCell id="bXfNXzeBsrkcsJw6JNFF-2" value="Данные" style="rounded=1;whiteSpace=wrap;html=1;" parent="1" vertex="1">
          <mxGeometry x="360" y="40" width="120" height="40" as="geometry" />
        </mxCell>
        <mxCell id="bXfNXzeBsrkcsJw6JNFF-7" style="edgeStyle=orthogonalEdgeStyle;rounded=0;orthogonalLoop=1;jettySize=auto;html=1;exitX=1;exitY=0.5;exitDx=0;exitDy=0;entryX=0;entryY=0.5;entryDx=0;entryDy=0;" parent="1" source="bXfNXzeBsrkcsJw6JNFF-4" target="bXfNXzeBsrkcsJw6JNFF-6" edge="1">
          <mxGeometry relative="1" as="geometry" />
        </mxCell>
        <mxCell id="bXfNXzeBsrkcsJw6JNFF-15" style="edgeStyle=orthogonalEdgeStyle;rounded=0;orthogonalLoop=1;jettySize=auto;html=1;exitX=0.5;exitY=1;exitDx=0;exitDy=0;entryX=0.5;entryY=0;entryDx=0;entryDy=0;" parent="1" source="bXfNXzeBsrkcsJw6JNFF-4" target="bXfNXzeBsrkcsJw6JNFF-14" edge="1">
          <mxGeometry relative="1" as="geometry" />
        </mxCell>
        <mxCell id="bXfNXzeBsrkcsJw6JNFF-17" style="edgeStyle=orthogonalEdgeStyle;rounded=0;orthogonalLoop=1;jettySize=auto;html=1;exitX=0;exitY=0.5;exitDx=0;exitDy=0;entryX=1;entryY=0.5;entryDx=0;entryDy=0;" parent="1" source="bXfNXzeBsrkcsJw6JNFF-4" target="bXfNXzeBsrkcsJw6JNFF-16" edge="1">
          <mxGeometry relative="1" as="geometry" />
        </mxCell>
        <mxCell id="bXfNXzeBsrkcsJw6JNFF-4" value="Типы обучения" style="rounded=1;whiteSpace=wrap;html=1;" parent="1" vertex="1">
          <mxGeometry x="360" y="120" width="120" height="40" as="geometry" />
        </mxCell>
        <mxCell id="bXfNXzeBsrkcsJw6JNFF-12" style="edgeStyle=orthogonalEdgeStyle;rounded=0;orthogonalLoop=1;jettySize=auto;html=1;exitX=0.5;exitY=0;exitDx=0;exitDy=0;entryX=0;entryY=0.5;entryDx=0;entryDy=0;" parent="1" source="bXfNXzeBsrkcsJw6JNFF-6" target="bXfNXzeBsrkcsJw6JNFF-9" edge="1">
          <mxGeometry relative="1" as="geometry" />
        </mxCell>
        <mxCell id="bXfNXzeBsrkcsJw6JNFF-109" style="edgeStyle=orthogonalEdgeStyle;rounded=0;orthogonalLoop=1;jettySize=auto;html=1;exitX=0.5;exitY=1;exitDx=0;exitDy=0;entryX=0.5;entryY=0;entryDx=0;entryDy=0;" parent="1" source="bXfNXzeBsrkcsJw6JNFF-6" target="bXfNXzeBsrkcsJw6JNFF-10" edge="1">
          <mxGeometry relative="1" as="geometry" />
        </mxCell>
        <mxCell id="bXfNXzeBsrkcsJw6JNFF-6" value="Обучение&lt;br&gt;&lt;div&gt;с учителем&lt;/div&gt;" style="rounded=1;whiteSpace=wrap;html=1;" parent="1" vertex="1">
          <mxGeometry x="520" y="120" width="120" height="40" as="geometry" />
        </mxCell>
        <mxCell id="bXfNXzeBsrkcsJw6JNFF-9" value="Регрессия (предсказание чисел)" style="rounded=1;whiteSpace=wrap;html=1;fillColor=#f8cecc;strokeColor=#b85450;" parent="1" vertex="1">
          <mxGeometry x="680" y="80" width="120" height="40" as="geometry" />
        </mxCell>
        <mxCell id="bXfNXzeBsrkcsJw6JNFF-160" style="edgeStyle=orthogonalEdgeStyle;rounded=0;orthogonalLoop=1;jettySize=auto;html=1;exitX=1;exitY=0.5;exitDx=0;exitDy=0;entryX=0.5;entryY=0;entryDx=0;entryDy=0;" parent="1" source="bXfNXzeBsrkcsJw6JNFF-10" target="bXfNXzeBsrkcsJw6JNFF-110" edge="1">
          <mxGeometry relative="1" as="geometry" />
        </mxCell>
        <mxCell id="bXfNXzeBsrkcsJw6JNFF-161" style="edgeStyle=orthogonalEdgeStyle;rounded=0;orthogonalLoop=1;jettySize=auto;html=1;exitX=0.75;exitY=1;exitDx=0;exitDy=0;entryX=0;entryY=0.5;entryDx=0;entryDy=0;" parent="1" source="bXfNXzeBsrkcsJw6JNFF-10" target="bXfNXzeBsrkcsJw6JNFF-111" edge="1">
          <mxGeometry relative="1" as="geometry" />
        </mxCell>
        <mxCell id="bXfNXzeBsrkcsJw6JNFF-10" value="Классификация (предсказание классов)" style="rounded=1;whiteSpace=wrap;html=1;" parent="1" vertex="1">
          <mxGeometry x="520" y="200" width="120" height="40" as="geometry" />
        </mxCell>
        <mxCell id="bXfNXzeBsrkcsJw6JNFF-14" value="Обучение&lt;br&gt;&lt;div&gt;без учителя&lt;/div&gt;" style="rounded=1;whiteSpace=wrap;html=1;" parent="1" vertex="1">
          <mxGeometry x="360" y="200" width="120" height="40" as="geometry" />
        </mxCell>
        <mxCell id="bXfNXzeBsrkcsJw6JNFF-16" value="Обучение&lt;br&gt;&lt;div&gt;с подкреплением&lt;/div&gt;" style="rounded=1;whiteSpace=wrap;html=1;" parent="1" vertex="1">
          <mxGeometry x="200" y="120" width="120" height="40" as="geometry" />
        </mxCell>
        <mxCell id="bXfNXzeBsrkcsJw6JNFF-40" style="edgeStyle=orthogonalEdgeStyle;rounded=0;orthogonalLoop=1;jettySize=auto;html=1;exitX=0.5;exitY=1;exitDx=0;exitDy=0;entryX=0.5;entryY=0;entryDx=0;entryDy=0;" parent="1" source="bXfNXzeBsrkcsJw6JNFF-34" target="bXfNXzeBsrkcsJw6JNFF-35" edge="1">
          <mxGeometry relative="1" as="geometry" />
        </mxCell>
        <mxCell id="bXfNXzeBsrkcsJw6JNFF-34" value="Простой" style="rounded=1;whiteSpace=wrap;html=1;" parent="1" vertex="1">
          <mxGeometry x="840" y="100" width="120" height="40" as="geometry" />
        </mxCell>
        <mxCell id="bXfNXzeBsrkcsJw6JNFF-41" style="edgeStyle=orthogonalEdgeStyle;rounded=0;orthogonalLoop=1;jettySize=auto;html=1;exitX=0.5;exitY=1;exitDx=0;exitDy=0;entryX=0.5;entryY=0;entryDx=0;entryDy=0;" parent="1" source="bXfNXzeBsrkcsJw6JNFF-35" target="bXfNXzeBsrkcsJw6JNFF-36" edge="1">
          <mxGeometry relative="1" as="geometry" />
        </mxCell>
        <mxCell id="bXfNXzeBsrkcsJw6JNFF-35" value="Абсолютный" style="rounded=1;whiteSpace=wrap;html=1;" parent="1" vertex="1">
          <mxGeometry x="840" y="160" width="120" height="40" as="geometry" />
        </mxCell>
        <mxCell id="bXfNXzeBsrkcsJw6JNFF-36" value="Квадратический" style="rounded=1;whiteSpace=wrap;html=1;" parent="1" vertex="1">
          <mxGeometry x="840" y="220" width="120" height="40" as="geometry" />
        </mxCell>
        <mxCell id="bXfNXzeBsrkcsJw6JNFF-39" style="edgeStyle=orthogonalEdgeStyle;rounded=0;orthogonalLoop=1;jettySize=auto;html=1;exitX=0.5;exitY=1;exitDx=0;exitDy=0;entryX=0.5;entryY=0;entryDx=0;entryDy=0;" parent="1" source="bXfNXzeBsrkcsJw6JNFF-38" target="bXfNXzeBsrkcsJw6JNFF-34" edge="1">
          <mxGeometry relative="1" as="geometry" />
        </mxCell>
        <mxCell id="bXfNXzeBsrkcsJw6JNFF-38" value="Методы подбора модели" style="rounded=1;whiteSpace=wrap;html=1;" parent="1" vertex="1">
          <mxGeometry x="840" y="40" width="120" height="40" as="geometry" />
        </mxCell>
        <mxCell id="bXfNXzeBsrkcsJw6JNFF-43" style="edgeStyle=orthogonalEdgeStyle;rounded=0;orthogonalLoop=1;jettySize=auto;html=1;exitX=0.5;exitY=1;exitDx=0;exitDy=0;entryX=0.5;entryY=0;entryDx=0;entryDy=0;" parent="1" source="bXfNXzeBsrkcsJw6JNFF-44" target="bXfNXzeBsrkcsJw6JNFF-46" edge="1">
          <mxGeometry relative="1" as="geometry" />
        </mxCell>
        <mxCell id="bXfNXzeBsrkcsJw6JNFF-44" value="Стохастический (по одному примеру)" style="rounded=1;whiteSpace=wrap;html=1;" parent="1" vertex="1">
          <mxGeometry x="840" y="380" width="120" height="40" as="geometry" />
        </mxCell>
        <mxCell id="bXfNXzeBsrkcsJw6JNFF-45" style="edgeStyle=orthogonalEdgeStyle;rounded=0;orthogonalLoop=1;jettySize=auto;html=1;exitX=0.5;exitY=1;exitDx=0;exitDy=0;entryX=0.5;entryY=0;entryDx=0;entryDy=0;" parent="1" source="bXfNXzeBsrkcsJw6JNFF-46" target="bXfNXzeBsrkcsJw6JNFF-47" edge="1">
          <mxGeometry relative="1" as="geometry" />
        </mxCell>
        <mxCell id="bXfNXzeBsrkcsJw6JNFF-46" value="Мини-пакетный (по мини-батчу)" style="rounded=1;whiteSpace=wrap;html=1;" parent="1" vertex="1">
          <mxGeometry x="840" y="440" width="120" height="40" as="geometry" />
        </mxCell>
        <mxCell id="bXfNXzeBsrkcsJw6JNFF-47" value="Пакетный (весь датасет)" style="rounded=1;whiteSpace=wrap;html=1;" parent="1" vertex="1">
          <mxGeometry x="840" y="500" width="120" height="40" as="geometry" />
        </mxCell>
        <mxCell id="bXfNXzeBsrkcsJw6JNFF-48" style="edgeStyle=orthogonalEdgeStyle;rounded=0;orthogonalLoop=1;jettySize=auto;html=1;exitX=0.5;exitY=1;exitDx=0;exitDy=0;entryX=0.5;entryY=0;entryDx=0;entryDy=0;" parent="1" source="bXfNXzeBsrkcsJw6JNFF-49" target="bXfNXzeBsrkcsJw6JNFF-44" edge="1">
          <mxGeometry relative="1" as="geometry" />
        </mxCell>
        <mxCell id="bXfNXzeBsrkcsJw6JNFF-49" value="Градиентный спуск" style="rounded=1;whiteSpace=wrap;html=1;" parent="1" vertex="1">
          <mxGeometry x="840" y="320" width="120" height="40" as="geometry" />
        </mxCell>
        <mxCell id="bXfNXzeBsrkcsJw6JNFF-57" style="edgeStyle=orthogonalEdgeStyle;rounded=0;orthogonalLoop=1;jettySize=auto;html=1;exitX=0.5;exitY=1;exitDx=0;exitDy=0;entryX=0.5;entryY=0;entryDx=0;entryDy=0;" parent="1" source="bXfNXzeBsrkcsJw6JNFF-58" target="bXfNXzeBsrkcsJw6JNFF-60" edge="1">
          <mxGeometry relative="1" as="geometry" />
        </mxCell>
        <mxCell id="bXfNXzeBsrkcsJw6JNFF-58" value="Линейная регрессия" style="rounded=1;whiteSpace=wrap;html=1;" parent="1" vertex="1">
          <mxGeometry x="1000" y="100" width="120" height="40" as="geometry" />
        </mxCell>
        <mxCell id="bXfNXzeBsrkcsJw6JNFF-123" style="edgeStyle=orthogonalEdgeStyle;rounded=0;orthogonalLoop=1;jettySize=auto;html=1;exitX=0.5;exitY=1;exitDx=0;exitDy=0;entryX=0.5;entryY=0;entryDx=0;entryDy=0;" parent="1" source="bXfNXzeBsrkcsJw6JNFF-60" target="bXfNXzeBsrkcsJw6JNFF-122" edge="1">
          <mxGeometry relative="1" as="geometry" />
        </mxCell>
        <mxCell id="bXfNXzeBsrkcsJw6JNFF-60" value="Многомерная регрессия" style="rounded=1;whiteSpace=wrap;html=1;" parent="1" vertex="1">
          <mxGeometry x="1000" y="160" width="120" height="40" as="geometry" />
        </mxCell>
        <mxCell id="bXfNXzeBsrkcsJw6JNFF-62" style="edgeStyle=orthogonalEdgeStyle;rounded=0;orthogonalLoop=1;jettySize=auto;html=1;exitX=0.5;exitY=1;exitDx=0;exitDy=0;entryX=0.5;entryY=0;entryDx=0;entryDy=0;" parent="1" source="bXfNXzeBsrkcsJw6JNFF-63" target="bXfNXzeBsrkcsJw6JNFF-58" edge="1">
          <mxGeometry relative="1" as="geometry" />
        </mxCell>
        <mxCell id="bXfNXzeBsrkcsJw6JNFF-63" value="Алгоритмы регрессии" style="rounded=1;whiteSpace=wrap;html=1;" parent="1" vertex="1">
          <mxGeometry x="1000" y="40" width="120" height="40" as="geometry" />
        </mxCell>
        <mxCell id="bXfNXzeBsrkcsJw6JNFF-64" style="edgeStyle=orthogonalEdgeStyle;rounded=0;orthogonalLoop=1;jettySize=auto;html=1;exitX=0.5;exitY=1;exitDx=0;exitDy=0;entryX=0.5;entryY=0;entryDx=0;entryDy=0;" parent="1" source="bXfNXzeBsrkcsJw6JNFF-65" target="bXfNXzeBsrkcsJw6JNFF-67" edge="1">
          <mxGeometry relative="1" as="geometry" />
        </mxCell>
        <mxCell id="bXfNXzeBsrkcsJw6JNFF-72" style="edgeStyle=orthogonalEdgeStyle;rounded=0;orthogonalLoop=1;jettySize=auto;html=1;exitX=1;exitY=0.5;exitDx=0;exitDy=0;entryX=0;entryY=0.5;entryDx=0;entryDy=0;" parent="1" source="bXfNXzeBsrkcsJw6JNFF-65" target="bXfNXzeBsrkcsJw6JNFF-71" edge="1">
          <mxGeometry relative="1" as="geometry" />
        </mxCell>
        <mxCell id="bXfNXzeBsrkcsJw6JNFF-65" value="SAE (Сумма абсолютных ошибок)" style="rounded=1;whiteSpace=wrap;html=1;" parent="1" vertex="1">
          <mxGeometry x="1160" y="100" width="120" height="40" as="geometry" />
        </mxCell>
        <mxCell id="bXfNXzeBsrkcsJw6JNFF-74" style="edgeStyle=orthogonalEdgeStyle;rounded=0;orthogonalLoop=1;jettySize=auto;html=1;exitX=1;exitY=0.5;exitDx=0;exitDy=0;entryX=0;entryY=0.5;entryDx=0;entryDy=0;" parent="1" source="bXfNXzeBsrkcsJw6JNFF-67" target="bXfNXzeBsrkcsJw6JNFF-73" edge="1">
          <mxGeometry relative="1" as="geometry" />
        </mxCell>
        <mxCell id="bXfNXzeBsrkcsJw6JNFF-67" value="RSS (Сумма квадратов остатков)" style="rounded=1;whiteSpace=wrap;html=1;" parent="1" vertex="1">
          <mxGeometry x="1160" y="160" width="120" height="40" as="geometry" />
        </mxCell>
        <mxCell id="bXfNXzeBsrkcsJw6JNFF-69" style="edgeStyle=orthogonalEdgeStyle;rounded=0;orthogonalLoop=1;jettySize=auto;html=1;exitX=0.5;exitY=1;exitDx=0;exitDy=0;entryX=0.5;entryY=0;entryDx=0;entryDy=0;" parent="1" source="bXfNXzeBsrkcsJw6JNFF-70" target="bXfNXzeBsrkcsJw6JNFF-65" edge="1">
          <mxGeometry relative="1" as="geometry" />
        </mxCell>
        <mxCell id="bXfNXzeBsrkcsJw6JNFF-70" value="Ошибки (функции потерь)" style="rounded=1;whiteSpace=wrap;html=1;" parent="1" vertex="1">
          <mxGeometry x="1160" y="40" width="120" height="40" as="geometry" />
        </mxCell>
        <mxCell id="bXfNXzeBsrkcsJw6JNFF-71" value="MAE (Средняя абсолютная ошибка)" style="rounded=1;whiteSpace=wrap;html=1;" parent="1" vertex="1">
          <mxGeometry x="1320" y="100" width="120" height="40" as="geometry" />
        </mxCell>
        <mxCell id="bXfNXzeBsrkcsJw6JNFF-76" style="edgeStyle=orthogonalEdgeStyle;rounded=0;orthogonalLoop=1;jettySize=auto;html=1;exitX=1;exitY=0.5;exitDx=0;exitDy=0;entryX=0;entryY=0.5;entryDx=0;entryDy=0;" parent="1" source="bXfNXzeBsrkcsJw6JNFF-73" target="bXfNXzeBsrkcsJw6JNFF-75" edge="1">
          <mxGeometry relative="1" as="geometry" />
        </mxCell>
        <mxCell id="bXfNXzeBsrkcsJw6JNFF-73" value="MSE (Средняя квадратичная ошибка)" style="rounded=1;whiteSpace=wrap;html=1;" parent="1" vertex="1">
          <mxGeometry x="1320" y="160" width="120" height="40" as="geometry" />
        </mxCell>
        <mxCell id="bXfNXzeBsrkcsJw6JNFF-75" value="RMSE (Корень из средней квадратичной ошибки)" style="rounded=1;whiteSpace=wrap;html=1;" parent="1" vertex="1">
          <mxGeometry x="1480" y="140" width="120" height="80" as="geometry" />
        </mxCell>
        <mxCell id="bXfNXzeBsrkcsJw6JNFF-79" style="edgeStyle=orthogonalEdgeStyle;rounded=0;orthogonalLoop=1;jettySize=auto;html=1;exitX=0.5;exitY=1;exitDx=0;exitDy=0;entryX=0.5;entryY=0;entryDx=0;entryDy=0;" parent="1" source="bXfNXzeBsrkcsJw6JNFF-77" target="bXfNXzeBsrkcsJw6JNFF-78" edge="1">
          <mxGeometry relative="1" as="geometry" />
        </mxCell>
        <mxCell id="bXfNXzeBsrkcsJw6JNFF-77" value="Параметры" style="rounded=1;whiteSpace=wrap;html=1;" parent="1" vertex="1">
          <mxGeometry x="1000" y="320" width="120" height="40" as="geometry" />
        </mxCell>
        <mxCell id="bXfNXzeBsrkcsJw6JNFF-81" style="edgeStyle=orthogonalEdgeStyle;rounded=0;orthogonalLoop=1;jettySize=auto;html=1;exitX=0.5;exitY=1;exitDx=0;exitDy=0;entryX=0.5;entryY=0;entryDx=0;entryDy=0;" parent="1" source="bXfNXzeBsrkcsJw6JNFF-78" target="bXfNXzeBsrkcsJw6JNFF-80" edge="1">
          <mxGeometry relative="1" as="geometry" />
        </mxCell>
        <mxCell id="bXfNXzeBsrkcsJw6JNFF-78" value="Веса (коэффициенты) — наклон" style="rounded=1;whiteSpace=wrap;html=1;" parent="1" vertex="1">
          <mxGeometry x="1000" y="380" width="120" height="40" as="geometry" />
        </mxCell>
        <mxCell id="bXfNXzeBsrkcsJw6JNFF-80" value="Смещение (bias) — сдвиг" style="rounded=1;whiteSpace=wrap;html=1;" parent="1" vertex="1">
          <mxGeometry x="1000" y="440" width="120" height="40" as="geometry" />
        </mxCell>
        <mxCell id="bXfNXzeBsrkcsJw6JNFF-82" style="edgeStyle=orthogonalEdgeStyle;rounded=0;orthogonalLoop=1;jettySize=auto;html=1;exitX=0.5;exitY=1;exitDx=0;exitDy=0;entryX=0.5;entryY=0;entryDx=0;entryDy=0;" parent="1" source="bXfNXzeBsrkcsJw6JNFF-83" target="bXfNXzeBsrkcsJw6JNFF-85" edge="1">
          <mxGeometry relative="1" as="geometry" />
        </mxCell>
        <mxCell id="bXfNXzeBsrkcsJw6JNFF-83" value="Гиперпараметры" style="rounded=1;whiteSpace=wrap;html=1;" parent="1" vertex="1">
          <mxGeometry x="1160" y="320" width="120" height="40" as="geometry" />
        </mxCell>
        <mxCell id="bXfNXzeBsrkcsJw6JNFF-84" style="edgeStyle=orthogonalEdgeStyle;rounded=0;orthogonalLoop=1;jettySize=auto;html=1;exitX=0.5;exitY=1;exitDx=0;exitDy=0;entryX=0.5;entryY=0;entryDx=0;entryDy=0;" parent="1" source="bXfNXzeBsrkcsJw6JNFF-85" target="bXfNXzeBsrkcsJw6JNFF-86" edge="1">
          <mxGeometry relative="1" as="geometry" />
        </mxCell>
        <mxCell id="bXfNXzeBsrkcsJw6JNFF-85" value="Скорость обучения" style="rounded=1;whiteSpace=wrap;html=1;" parent="1" vertex="1">
          <mxGeometry x="1160" y="380" width="120" height="40" as="geometry" />
        </mxCell>
        <mxCell id="bXfNXzeBsrkcsJw6JNFF-88" style="edgeStyle=orthogonalEdgeStyle;rounded=0;orthogonalLoop=1;jettySize=auto;html=1;exitX=0.5;exitY=1;exitDx=0;exitDy=0;entryX=0.5;entryY=0;entryDx=0;entryDy=0;" parent="1" source="bXfNXzeBsrkcsJw6JNFF-86" target="bXfNXzeBsrkcsJw6JNFF-87" edge="1">
          <mxGeometry relative="1" as="geometry" />
        </mxCell>
        <mxCell id="bXfNXzeBsrkcsJw6JNFF-86" value="Количество итераций" style="rounded=1;whiteSpace=wrap;html=1;" parent="1" vertex="1">
          <mxGeometry x="1160" y="440" width="120" height="40" as="geometry" />
        </mxCell>
        <mxCell id="bXfNXzeBsrkcsJw6JNFF-107" style="edgeStyle=orthogonalEdgeStyle;rounded=0;orthogonalLoop=1;jettySize=auto;html=1;exitX=0.5;exitY=1;exitDx=0;exitDy=0;entryX=0.5;entryY=0;entryDx=0;entryDy=0;" parent="1" source="bXfNXzeBsrkcsJw6JNFF-87" target="bXfNXzeBsrkcsJw6JNFF-106" edge="1">
          <mxGeometry relative="1" as="geometry" />
        </mxCell>
        <mxCell id="bXfNXzeBsrkcsJw6JNFF-87" value="Степень полинома" style="rounded=1;whiteSpace=wrap;html=1;" parent="1" vertex="1">
          <mxGeometry x="1160" y="500" width="120" height="40" as="geometry" />
        </mxCell>
        <mxCell id="bXfNXzeBsrkcsJw6JNFF-89" style="edgeStyle=orthogonalEdgeStyle;rounded=0;orthogonalLoop=1;jettySize=auto;html=1;exitX=0.5;exitY=1;exitDx=0;exitDy=0;entryX=0.5;entryY=0;entryDx=0;entryDy=0;" parent="1" source="bXfNXzeBsrkcsJw6JNFF-90" target="bXfNXzeBsrkcsJw6JNFF-92" edge="1">
          <mxGeometry relative="1" as="geometry" />
        </mxCell>
        <mxCell id="bXfNXzeBsrkcsJw6JNFF-90" value="Недообучение и Переобучение" style="rounded=1;whiteSpace=wrap;html=1;" parent="1" vertex="1">
          <mxGeometry x="1320" y="320" width="120" height="40" as="geometry" />
        </mxCell>
        <mxCell id="bXfNXzeBsrkcsJw6JNFF-91" style="edgeStyle=orthogonalEdgeStyle;rounded=0;orthogonalLoop=1;jettySize=auto;html=1;exitX=0.5;exitY=1;exitDx=0;exitDy=0;entryX=0.5;entryY=0;entryDx=0;entryDy=0;" parent="1" source="bXfNXzeBsrkcsJw6JNFF-92" target="bXfNXzeBsrkcsJw6JNFF-94" edge="1">
          <mxGeometry relative="1" as="geometry" />
        </mxCell>
        <mxCell id="bXfNXzeBsrkcsJw6JNFF-92" value="График функции ошибок" style="rounded=1;whiteSpace=wrap;html=1;" parent="1" vertex="1">
          <mxGeometry x="1320" y="380" width="120" height="40" as="geometry" />
        </mxCell>
        <mxCell id="bXfNXzeBsrkcsJw6JNFF-151" style="edgeStyle=orthogonalEdgeStyle;rounded=0;orthogonalLoop=1;jettySize=auto;html=1;exitX=0.5;exitY=1;exitDx=0;exitDy=0;entryX=0.5;entryY=0;entryDx=0;entryDy=0;" parent="1" source="bXfNXzeBsrkcsJw6JNFF-94" target="bXfNXzeBsrkcsJw6JNFF-97" edge="1">
          <mxGeometry relative="1" as="geometry" />
        </mxCell>
        <mxCell id="bXfNXzeBsrkcsJw6JNFF-152" style="edgeStyle=orthogonalEdgeStyle;rounded=0;orthogonalLoop=1;jettySize=auto;html=1;exitX=1;exitY=0.5;exitDx=0;exitDy=0;entryX=0;entryY=0.5;entryDx=0;entryDy=0;" parent="1" source="bXfNXzeBsrkcsJw6JNFF-94" target="bXfNXzeBsrkcsJw6JNFF-150" edge="1">
          <mxGeometry relative="1" as="geometry" />
        </mxCell>
        <mxCell id="bXfNXzeBsrkcsJw6JNFF-94" value="Train / Test" style="rounded=1;whiteSpace=wrap;html=1;" parent="1" vertex="1">
          <mxGeometry x="1320" y="440" width="120" height="40" as="geometry" />
        </mxCell>
        <mxCell id="bXfNXzeBsrkcsJw6JNFF-96" style="edgeStyle=orthogonalEdgeStyle;rounded=0;orthogonalLoop=1;jettySize=auto;html=1;exitX=0.5;exitY=1;exitDx=0;exitDy=0;entryX=0.5;entryY=0;entryDx=0;entryDy=0;" parent="1" source="bXfNXzeBsrkcsJw6JNFF-97" target="bXfNXzeBsrkcsJw6JNFF-98" edge="1">
          <mxGeometry relative="1" as="geometry" />
        </mxCell>
        <mxCell id="bXfNXzeBsrkcsJw6JNFF-97" value="График сложности модели" style="rounded=1;whiteSpace=wrap;html=1;" parent="1" vertex="1">
          <mxGeometry x="1320" y="500" width="120" height="40" as="geometry" />
        </mxCell>
        <mxCell id="bXfNXzeBsrkcsJw6JNFF-103" style="edgeStyle=orthogonalEdgeStyle;rounded=0;orthogonalLoop=1;jettySize=auto;html=1;exitX=1;exitY=0.25;exitDx=0;exitDy=0;entryX=0;entryY=0.5;entryDx=0;entryDy=0;" parent="1" source="bXfNXzeBsrkcsJw6JNFF-98" target="bXfNXzeBsrkcsJw6JNFF-100" edge="1">
          <mxGeometry relative="1" as="geometry" />
        </mxCell>
        <mxCell id="bXfNXzeBsrkcsJw6JNFF-105" style="edgeStyle=orthogonalEdgeStyle;rounded=0;orthogonalLoop=1;jettySize=auto;html=1;exitX=1;exitY=0.75;exitDx=0;exitDy=0;entryX=0;entryY=0.5;entryDx=0;entryDy=0;" parent="1" source="bXfNXzeBsrkcsJw6JNFF-98" target="bXfNXzeBsrkcsJw6JNFF-101" edge="1">
          <mxGeometry relative="1" as="geometry" />
        </mxCell>
        <mxCell id="bXfNXzeBsrkcsJw6JNFF-108" style="edgeStyle=orthogonalEdgeStyle;rounded=0;orthogonalLoop=1;jettySize=auto;html=1;exitX=0;exitY=0.5;exitDx=0;exitDy=0;entryX=1;entryY=0.5;entryDx=0;entryDy=0;" parent="1" source="bXfNXzeBsrkcsJw6JNFF-98" target="bXfNXzeBsrkcsJw6JNFF-106" edge="1">
          <mxGeometry relative="1" as="geometry" />
        </mxCell>
        <mxCell id="bXfNXzeBsrkcsJw6JNFF-98" value="Регуляризация" style="rounded=1;whiteSpace=wrap;html=1;" parent="1" vertex="1">
          <mxGeometry x="1320" y="560" width="120" height="40" as="geometry" />
        </mxCell>
        <mxCell id="bXfNXzeBsrkcsJw6JNFF-100" value="L1 (Lasso): зануляет веса" style="rounded=1;whiteSpace=wrap;html=1;" parent="1" vertex="1">
          <mxGeometry x="1480" y="530" width="120" height="40" as="geometry" />
        </mxCell>
        <mxCell id="bXfNXzeBsrkcsJw6JNFF-101" value="L2 (Ridge): просто уменьшает веса" style="rounded=1;whiteSpace=wrap;html=1;" parent="1" vertex="1">
          <mxGeometry x="1480" y="590" width="120" height="40" as="geometry" />
        </mxCell>
        <mxCell id="bXfNXzeBsrkcsJw6JNFF-106" value="Коэффициент регуляризации" style="rounded=1;whiteSpace=wrap;html=1;" parent="1" vertex="1">
          <mxGeometry x="1160" y="560" width="120" height="40" as="geometry" />
        </mxCell>
        <mxCell id="bXfNXzeBsrkcsJw6JNFF-246" style="edgeStyle=orthogonalEdgeStyle;rounded=0;orthogonalLoop=1;jettySize=auto;html=1;exitX=0.5;exitY=1;exitDx=0;exitDy=0;entryX=0.5;entryY=0;entryDx=0;entryDy=0;" parent="1" source="bXfNXzeBsrkcsJw6JNFF-110" target="bXfNXzeBsrkcsJw6JNFF-245" edge="1">
          <mxGeometry relative="1" as="geometry" />
        </mxCell>
        <mxCell id="bXfNXzeBsrkcsJw6JNFF-110" value="Бинарная классификация" style="rounded=1;whiteSpace=wrap;html=1;fillColor=#ffe6cc;strokeColor=#d79b00;" parent="1" vertex="1">
          <mxGeometry x="680" y="600" width="120" height="40" as="geometry" />
        </mxCell>
        <mxCell id="bXfNXzeBsrkcsJw6JNFF-111" value="Логистическая регрессия" style="rounded=1;whiteSpace=wrap;html=1;fillColor=#fff2cc;strokeColor=#d6b656;" parent="1" vertex="1">
          <mxGeometry x="680" y="960" width="120" height="40" as="geometry" />
        </mxCell>
        <mxCell id="bXfNXzeBsrkcsJw6JNFF-113" value="ступенчатая" style="rounded=1;whiteSpace=wrap;html=1;" parent="1" vertex="1">
          <mxGeometry x="840" y="740" width="120" height="40" as="geometry" />
        </mxCell>
        <mxCell id="bXfNXzeBsrkcsJw6JNFF-115" style="edgeStyle=orthogonalEdgeStyle;rounded=0;orthogonalLoop=1;jettySize=auto;html=1;exitX=0.5;exitY=1;exitDx=0;exitDy=0;entryX=0.5;entryY=0;entryDx=0;entryDy=0;" parent="1" source="bXfNXzeBsrkcsJw6JNFF-116" target="bXfNXzeBsrkcsJw6JNFF-113" edge="1">
          <mxGeometry relative="1" as="geometry" />
        </mxCell>
        <mxCell id="bXfNXzeBsrkcsJw6JNFF-116" value="Функция активации" style="rounded=1;whiteSpace=wrap;html=1;" parent="1" vertex="1">
          <mxGeometry x="840" y="680" width="120" height="40" as="geometry" />
        </mxCell>
        <mxCell id="bXfNXzeBsrkcsJw6JNFF-118" value="Многомерный" style="rounded=1;whiteSpace=wrap;html=1;" parent="1" vertex="1">
          <mxGeometry x="1320" y="740" width="120" height="40" as="geometry" />
        </mxCell>
        <mxCell id="bXfNXzeBsrkcsJw6JNFF-120" style="edgeStyle=orthogonalEdgeStyle;rounded=0;orthogonalLoop=1;jettySize=auto;html=1;exitX=0.5;exitY=1;exitDx=0;exitDy=0;entryX=0.5;entryY=0;entryDx=0;entryDy=0;" parent="1" source="bXfNXzeBsrkcsJw6JNFF-121" target="bXfNXzeBsrkcsJw6JNFF-118" edge="1">
          <mxGeometry relative="1" as="geometry" />
        </mxCell>
        <mxCell id="bXfNXzeBsrkcsJw6JNFF-121" value="Виды алгоритмов" style="rounded=1;whiteSpace=wrap;html=1;" parent="1" vertex="1">
          <mxGeometry x="1320" y="680" width="120" height="40" as="geometry" />
        </mxCell>
        <mxCell id="bXfNXzeBsrkcsJw6JNFF-122" value="Полиномиальная регрессия" style="rounded=1;whiteSpace=wrap;html=1;" parent="1" vertex="1">
          <mxGeometry x="1000" y="220" width="120" height="40" as="geometry" />
        </mxCell>
        <mxCell id="bXfNXzeBsrkcsJw6JNFF-124" style="edgeStyle=orthogonalEdgeStyle;rounded=0;orthogonalLoop=1;jettySize=auto;html=1;exitX=0.5;exitY=1;exitDx=0;exitDy=0;entryX=0.5;entryY=0;entryDx=0;entryDy=0;" parent="1" source="bXfNXzeBsrkcsJw6JNFF-126" target="bXfNXzeBsrkcsJw6JNFF-128" edge="1">
          <mxGeometry relative="1" as="geometry" />
        </mxCell>
        <mxCell id="bXfNXzeBsrkcsJw6JNFF-126" value="Количество ошибок" style="rounded=1;whiteSpace=wrap;html=1;" parent="1" vertex="1">
          <mxGeometry x="1000" y="740" width="120" height="40" as="geometry" />
        </mxCell>
        <mxCell id="bXfNXzeBsrkcsJw6JNFF-162" style="edgeStyle=orthogonalEdgeStyle;rounded=0;orthogonalLoop=1;jettySize=auto;html=1;exitX=1;exitY=0.5;exitDx=0;exitDy=0;entryX=0;entryY=0.5;entryDx=0;entryDy=0;" parent="1" source="bXfNXzeBsrkcsJw6JNFF-128" target="bXfNXzeBsrkcsJw6JNFF-135" edge="1">
          <mxGeometry relative="1" as="geometry" />
        </mxCell>
        <mxCell id="bXfNXzeBsrkcsJw6JNFF-128" value="Сумма ошибок на неправильных точках" style="rounded=1;whiteSpace=wrap;html=1;" parent="1" vertex="1">
          <mxGeometry x="1000" y="800" width="120" height="80" as="geometry" />
        </mxCell>
        <mxCell id="bXfNXzeBsrkcsJw6JNFF-129" style="edgeStyle=orthogonalEdgeStyle;rounded=0;orthogonalLoop=1;jettySize=auto;html=1;exitX=0.5;exitY=1;exitDx=0;exitDy=0;entryX=0.5;entryY=0;entryDx=0;entryDy=0;" parent="1" source="bXfNXzeBsrkcsJw6JNFF-130" target="bXfNXzeBsrkcsJw6JNFF-126" edge="1">
          <mxGeometry relative="1" as="geometry" />
        </mxCell>
        <mxCell id="bXfNXzeBsrkcsJw6JNFF-130" value="Функции потерь" style="rounded=1;whiteSpace=wrap;html=1;" parent="1" vertex="1">
          <mxGeometry x="1000" y="680" width="120" height="40" as="geometry" />
        </mxCell>
        <mxCell id="bXfNXzeBsrkcsJw6JNFF-135" value="Средняя ошибка" style="rounded=1;whiteSpace=wrap;html=1;" parent="1" vertex="1">
          <mxGeometry x="1160" y="820" width="120" height="40" as="geometry" />
        </mxCell>
        <mxCell id="bXfNXzeBsrkcsJw6JNFF-139" value="дискретный классификатор" style="rounded=1;whiteSpace=wrap;html=1;" parent="1" vertex="1">
          <mxGeometry x="1160" y="740" width="120" height="40" as="geometry" />
        </mxCell>
        <mxCell id="bXfNXzeBsrkcsJw6JNFF-143" style="edgeStyle=orthogonalEdgeStyle;rounded=0;orthogonalLoop=1;jettySize=auto;html=1;exitX=0.5;exitY=1;exitDx=0;exitDy=0;entryX=0.5;entryY=0;entryDx=0;entryDy=0;" parent="1" source="bXfNXzeBsrkcsJw6JNFF-144" target="bXfNXzeBsrkcsJw6JNFF-139" edge="1">
          <mxGeometry relative="1" as="geometry" />
        </mxCell>
        <mxCell id="bXfNXzeBsrkcsJw6JNFF-144" value="Метод персептрона" style="rounded=1;whiteSpace=wrap;html=1;" parent="1" vertex="1">
          <mxGeometry x="1160" y="680" width="120" height="40" as="geometry" />
        </mxCell>
        <mxCell id="bXfNXzeBsrkcsJw6JNFF-150" value="Train / Valid / Test" style="rounded=1;whiteSpace=wrap;html=1;" parent="1" vertex="1">
          <mxGeometry x="1480" y="440" width="120" height="40" as="geometry" />
        </mxCell>
        <mxCell id="bXfNXzeBsrkcsJw6JNFF-153" style="edgeStyle=orthogonalEdgeStyle;rounded=0;orthogonalLoop=1;jettySize=auto;html=1;exitX=0.5;exitY=1;exitDx=0;exitDy=0;entryX=0.5;entryY=0;entryDx=0;entryDy=0;" parent="1" source="bXfNXzeBsrkcsJw6JNFF-154" target="bXfNXzeBsrkcsJw6JNFF-156" edge="1">
          <mxGeometry relative="1" as="geometry" />
        </mxCell>
        <mxCell id="bXfNXzeBsrkcsJw6JNFF-154" value="Стохастический" style="rounded=1;whiteSpace=wrap;html=1;" parent="1" vertex="1">
          <mxGeometry x="1480" y="740" width="120" height="40" as="geometry" />
        </mxCell>
        <mxCell id="bXfNXzeBsrkcsJw6JNFF-155" style="edgeStyle=orthogonalEdgeStyle;rounded=0;orthogonalLoop=1;jettySize=auto;html=1;exitX=0.5;exitY=1;exitDx=0;exitDy=0;entryX=0.5;entryY=0;entryDx=0;entryDy=0;" parent="1" source="bXfNXzeBsrkcsJw6JNFF-156" target="bXfNXzeBsrkcsJw6JNFF-157" edge="1">
          <mxGeometry relative="1" as="geometry" />
        </mxCell>
        <mxCell id="bXfNXzeBsrkcsJw6JNFF-156" value="Мини-пакетный" style="rounded=1;whiteSpace=wrap;html=1;" parent="1" vertex="1">
          <mxGeometry x="1480" y="800" width="120" height="40" as="geometry" />
        </mxCell>
        <mxCell id="bXfNXzeBsrkcsJw6JNFF-157" value="Пакетный" style="rounded=1;whiteSpace=wrap;html=1;" parent="1" vertex="1">
          <mxGeometry x="1480" y="860" width="120" height="40" as="geometry" />
        </mxCell>
        <mxCell id="bXfNXzeBsrkcsJw6JNFF-158" style="edgeStyle=orthogonalEdgeStyle;rounded=0;orthogonalLoop=1;jettySize=auto;html=1;exitX=0.5;exitY=1;exitDx=0;exitDy=0;entryX=0.5;entryY=0;entryDx=0;entryDy=0;" parent="1" source="bXfNXzeBsrkcsJw6JNFF-159" target="bXfNXzeBsrkcsJw6JNFF-154" edge="1">
          <mxGeometry relative="1" as="geometry" />
        </mxCell>
        <mxCell id="bXfNXzeBsrkcsJw6JNFF-159" value="Градиентный спуск" style="rounded=1;whiteSpace=wrap;html=1;" parent="1" vertex="1">
          <mxGeometry x="1480" y="680" width="120" height="40" as="geometry" />
        </mxCell>
        <mxCell id="bXfNXzeBsrkcsJw6JNFF-163" value="сигмоидная (даёт вероятность)" style="rounded=1;whiteSpace=wrap;html=1;" parent="1" vertex="1">
          <mxGeometry x="840" y="1020" width="120" height="40" as="geometry" />
        </mxCell>
        <mxCell id="bXfNXzeBsrkcsJw6JNFF-164" style="edgeStyle=orthogonalEdgeStyle;rounded=0;orthogonalLoop=1;jettySize=auto;html=1;exitX=0.5;exitY=1;exitDx=0;exitDy=0;entryX=0.5;entryY=0;entryDx=0;entryDy=0;" parent="1" source="bXfNXzeBsrkcsJw6JNFF-165" target="bXfNXzeBsrkcsJw6JNFF-163" edge="1">
          <mxGeometry relative="1" as="geometry" />
        </mxCell>
        <mxCell id="bXfNXzeBsrkcsJw6JNFF-165" value="Функции активации" style="rounded=1;whiteSpace=wrap;html=1;" parent="1" vertex="1">
          <mxGeometry x="840" y="960" width="120" height="40" as="geometry" />
        </mxCell>
        <mxCell id="bXfNXzeBsrkcsJw6JNFF-173" style="edgeStyle=orthogonalEdgeStyle;rounded=0;orthogonalLoop=1;jettySize=auto;html=1;exitX=0.5;exitY=1;exitDx=0;exitDy=0;entryX=0.5;entryY=0;entryDx=0;entryDy=0;" parent="1" source="bXfNXzeBsrkcsJw6JNFF-175" target="bXfNXzeBsrkcsJw6JNFF-177" edge="1">
          <mxGeometry relative="1" as="geometry" />
        </mxCell>
        <mxCell id="bXfNXzeBsrkcsJw6JNFF-175" value="Сумма&lt;div&gt;абсолютных ошибок&lt;/div&gt;" style="rounded=1;whiteSpace=wrap;html=1;" parent="1" vertex="1">
          <mxGeometry x="1000" y="1020" width="120" height="40" as="geometry" />
        </mxCell>
        <mxCell id="bXfNXzeBsrkcsJw6JNFF-183" style="edgeStyle=orthogonalEdgeStyle;rounded=0;orthogonalLoop=1;jettySize=auto;html=1;exitX=0.5;exitY=1;exitDx=0;exitDy=0;entryX=0.5;entryY=0;entryDx=0;entryDy=0;" parent="1" source="bXfNXzeBsrkcsJw6JNFF-177" target="bXfNXzeBsrkcsJw6JNFF-182" edge="1">
          <mxGeometry relative="1" as="geometry" />
        </mxCell>
        <mxCell id="bXfNXzeBsrkcsJw6JNFF-177" value="Сумма&amp;nbsp;&lt;div&gt;квадратов остатков&lt;/div&gt;" style="rounded=1;whiteSpace=wrap;html=1;" parent="1" vertex="1">
          <mxGeometry x="1000" y="1080" width="120" height="40" as="geometry" />
        </mxCell>
        <mxCell id="bXfNXzeBsrkcsJw6JNFF-178" style="edgeStyle=orthogonalEdgeStyle;rounded=0;orthogonalLoop=1;jettySize=auto;html=1;exitX=0.5;exitY=1;exitDx=0;exitDy=0;entryX=0.5;entryY=0;entryDx=0;entryDy=0;" parent="1" source="bXfNXzeBsrkcsJw6JNFF-179" target="bXfNXzeBsrkcsJw6JNFF-175" edge="1">
          <mxGeometry relative="1" as="geometry" />
        </mxCell>
        <mxCell id="bXfNXzeBsrkcsJw6JNFF-179" value="Функции потерь" style="rounded=1;whiteSpace=wrap;html=1;" parent="1" vertex="1">
          <mxGeometry x="1000" y="960" width="120" height="40" as="geometry" />
        </mxCell>
        <mxCell id="bXfNXzeBsrkcsJw6JNFF-205" style="edgeStyle=orthogonalEdgeStyle;rounded=0;orthogonalLoop=1;jettySize=auto;html=1;exitX=1;exitY=0.5;exitDx=0;exitDy=0;entryX=0;entryY=0.5;entryDx=0;entryDy=0;" parent="1" source="bXfNXzeBsrkcsJw6JNFF-182" target="bXfNXzeBsrkcsJw6JNFF-204" edge="1">
          <mxGeometry relative="1" as="geometry" />
        </mxCell>
        <mxCell id="bXfNXzeBsrkcsJw6JNFF-182" value="Логарифмическая (Log Loss)" style="rounded=1;whiteSpace=wrap;html=1;" parent="1" vertex="1">
          <mxGeometry x="1000" y="1140" width="120" height="40" as="geometry" />
        </mxCell>
        <mxCell id="bXfNXzeBsrkcsJw6JNFF-189" value="логистический (предсказывает вероятность класса)" style="rounded=1;whiteSpace=wrap;html=1;" parent="1" vertex="1">
          <mxGeometry x="1160" y="1020" width="120" height="40" as="geometry" />
        </mxCell>
        <mxCell id="bXfNXzeBsrkcsJw6JNFF-190" style="edgeStyle=orthogonalEdgeStyle;rounded=0;orthogonalLoop=1;jettySize=auto;html=1;exitX=0.5;exitY=1;exitDx=0;exitDy=0;entryX=0.5;entryY=0;entryDx=0;entryDy=0;" parent="1" source="bXfNXzeBsrkcsJw6JNFF-191" target="bXfNXzeBsrkcsJw6JNFF-189" edge="1">
          <mxGeometry relative="1" as="geometry" />
        </mxCell>
        <mxCell id="bXfNXzeBsrkcsJw6JNFF-191" value="Методы" style="rounded=1;whiteSpace=wrap;html=1;" parent="1" vertex="1">
          <mxGeometry x="1160" y="960" width="120" height="40" as="geometry" />
        </mxCell>
        <mxCell id="bXfNXzeBsrkcsJw6JNFF-192" style="edgeStyle=orthogonalEdgeStyle;rounded=0;orthogonalLoop=1;jettySize=auto;html=1;exitX=0.5;exitY=1;exitDx=0;exitDy=0;entryX=0.5;entryY=0;entryDx=0;entryDy=0;" parent="1" source="bXfNXzeBsrkcsJw6JNFF-193" target="bXfNXzeBsrkcsJw6JNFF-196" edge="1">
          <mxGeometry relative="1" as="geometry" />
        </mxCell>
        <mxCell id="bXfNXzeBsrkcsJw6JNFF-193" value="Логистический" style="rounded=1;whiteSpace=wrap;html=1;" parent="1" vertex="1">
          <mxGeometry x="1320" y="1020" width="120" height="40" as="geometry" />
        </mxCell>
        <mxCell id="bXfNXzeBsrkcsJw6JNFF-194" style="edgeStyle=orthogonalEdgeStyle;rounded=0;orthogonalLoop=1;jettySize=auto;html=1;exitX=0.5;exitY=1;exitDx=0;exitDy=0;entryX=0.5;entryY=0;entryDx=0;entryDy=0;" parent="1" source="bXfNXzeBsrkcsJw6JNFF-195" target="bXfNXzeBsrkcsJw6JNFF-193" edge="1">
          <mxGeometry relative="1" as="geometry" />
        </mxCell>
        <mxCell id="bXfNXzeBsrkcsJw6JNFF-195" value="Виды алгоритмов" style="rounded=1;whiteSpace=wrap;html=1;" parent="1" vertex="1">
          <mxGeometry x="1320" y="960" width="120" height="40" as="geometry" />
        </mxCell>
        <mxCell id="bXfNXzeBsrkcsJw6JNFF-196" value="Логистический со многими переменными" style="rounded=1;whiteSpace=wrap;html=1;" parent="1" vertex="1">
          <mxGeometry x="1320" y="1080" width="120" height="60" as="geometry" />
        </mxCell>
        <mxCell id="bXfNXzeBsrkcsJw6JNFF-197" style="edgeStyle=orthogonalEdgeStyle;rounded=0;orthogonalLoop=1;jettySize=auto;html=1;exitX=0.5;exitY=1;exitDx=0;exitDy=0;entryX=0.5;entryY=0;entryDx=0;entryDy=0;" parent="1" source="bXfNXzeBsrkcsJw6JNFF-198" target="bXfNXzeBsrkcsJw6JNFF-200" edge="1">
          <mxGeometry relative="1" as="geometry" />
        </mxCell>
        <mxCell id="bXfNXzeBsrkcsJw6JNFF-198" value="Стохастический" style="rounded=1;whiteSpace=wrap;html=1;" parent="1" vertex="1">
          <mxGeometry x="1480" y="1020" width="120" height="40" as="geometry" />
        </mxCell>
        <mxCell id="bXfNXzeBsrkcsJw6JNFF-199" style="edgeStyle=orthogonalEdgeStyle;rounded=0;orthogonalLoop=1;jettySize=auto;html=1;exitX=0.5;exitY=1;exitDx=0;exitDy=0;entryX=0.5;entryY=0;entryDx=0;entryDy=0;" parent="1" source="bXfNXzeBsrkcsJw6JNFF-200" target="bXfNXzeBsrkcsJw6JNFF-201" edge="1">
          <mxGeometry relative="1" as="geometry" />
        </mxCell>
        <mxCell id="bXfNXzeBsrkcsJw6JNFF-200" value="Мини-пакетный" style="rounded=1;whiteSpace=wrap;html=1;" parent="1" vertex="1">
          <mxGeometry x="1480" y="1080" width="120" height="40" as="geometry" />
        </mxCell>
        <mxCell id="bXfNXzeBsrkcsJw6JNFF-201" value="Пакетный" style="rounded=1;whiteSpace=wrap;html=1;" parent="1" vertex="1">
          <mxGeometry x="1480" y="1140" width="120" height="40" as="geometry" />
        </mxCell>
        <mxCell id="bXfNXzeBsrkcsJw6JNFF-202" style="edgeStyle=orthogonalEdgeStyle;rounded=0;orthogonalLoop=1;jettySize=auto;html=1;exitX=0.5;exitY=1;exitDx=0;exitDy=0;entryX=0.5;entryY=0;entryDx=0;entryDy=0;" parent="1" source="bXfNXzeBsrkcsJw6JNFF-203" target="bXfNXzeBsrkcsJw6JNFF-198" edge="1">
          <mxGeometry relative="1" as="geometry" />
        </mxCell>
        <mxCell id="bXfNXzeBsrkcsJw6JNFF-203" value="Градиентный спуск" style="rounded=1;whiteSpace=wrap;html=1;" parent="1" vertex="1">
          <mxGeometry x="1480" y="960" width="120" height="40" as="geometry" />
        </mxCell>
        <mxCell id="bXfNXzeBsrkcsJw6JNFF-204" value="Сумма логарифмических потерь (cross-entropy)" style="rounded=1;whiteSpace=wrap;html=1;" parent="1" vertex="1">
          <mxGeometry x="1160" y="1130" width="120" height="60" as="geometry" />
        </mxCell>
        <mxCell id="bXfNXzeBsrkcsJw6JNFF-222" style="edgeStyle=orthogonalEdgeStyle;rounded=0;orthogonalLoop=1;jettySize=auto;html=1;exitX=0.5;exitY=1;exitDx=0;exitDy=0;entryX=0.5;entryY=0;entryDx=0;entryDy=0;" parent="1" source="bXfNXzeBsrkcsJw6JNFF-206" target="bXfNXzeBsrkcsJw6JNFF-221" edge="1">
          <mxGeometry relative="1" as="geometry" />
        </mxCell>
        <mxCell id="bXfNXzeBsrkcsJw6JNFF-206" value="Ложно-положительная (FP)" style="rounded=1;whiteSpace=wrap;html=1;" parent="1" vertex="1">
          <mxGeometry x="840" y="1300" width="120" height="40" as="geometry" />
        </mxCell>
        <mxCell id="bXfNXzeBsrkcsJw6JNFF-207" style="edgeStyle=orthogonalEdgeStyle;rounded=0;orthogonalLoop=1;jettySize=auto;html=1;exitX=0.5;exitY=1;exitDx=0;exitDy=0;entryX=0.5;entryY=0;entryDx=0;entryDy=0;" parent="1" source="bXfNXzeBsrkcsJw6JNFF-208" target="bXfNXzeBsrkcsJw6JNFF-206" edge="1">
          <mxGeometry relative="1" as="geometry" />
        </mxCell>
        <mxCell id="bXfNXzeBsrkcsJw6JNFF-208" value="Типы ошибок" style="rounded=1;whiteSpace=wrap;html=1;" parent="1" vertex="1">
          <mxGeometry x="840" y="1240" width="120" height="40" as="geometry" />
        </mxCell>
        <mxCell id="bXfNXzeBsrkcsJw6JNFF-209" style="edgeStyle=orthogonalEdgeStyle;rounded=0;orthogonalLoop=1;jettySize=auto;html=1;exitX=0.5;exitY=1;exitDx=0;exitDy=0;entryX=0.5;entryY=0;entryDx=0;entryDy=0;" parent="1" source="bXfNXzeBsrkcsJw6JNFF-210" target="bXfNXzeBsrkcsJw6JNFF-212" edge="1">
          <mxGeometry relative="1" as="geometry" />
        </mxCell>
        <mxCell id="bXfNXzeBsrkcsJw6JNFF-210" value="Достоверность&lt;div&gt;(% случаев, когда модель права)&lt;/div&gt;" style="rounded=1;whiteSpace=wrap;html=1;" parent="1" vertex="1">
          <mxGeometry x="1000" y="1360" width="120" height="40" as="geometry" />
        </mxCell>
        <mxCell id="bXfNXzeBsrkcsJw6JNFF-211" style="edgeStyle=orthogonalEdgeStyle;rounded=0;orthogonalLoop=1;jettySize=auto;html=1;exitX=0.5;exitY=1;exitDx=0;exitDy=0;entryX=0.5;entryY=0;entryDx=0;entryDy=0;" parent="1" source="bXfNXzeBsrkcsJw6JNFF-212" target="bXfNXzeBsrkcsJw6JNFF-216" edge="1">
          <mxGeometry relative="1" as="geometry" />
        </mxCell>
        <mxCell id="bXfNXzeBsrkcsJw6JNFF-227" style="edgeStyle=orthogonalEdgeStyle;rounded=0;orthogonalLoop=1;jettySize=auto;html=1;exitX=1;exitY=0.5;exitDx=0;exitDy=0;entryX=0;entryY=0.5;entryDx=0;entryDy=0;" parent="1" source="bXfNXzeBsrkcsJw6JNFF-212" target="bXfNXzeBsrkcsJw6JNFF-225" edge="1">
          <mxGeometry relative="1" as="geometry" />
        </mxCell>
        <mxCell id="bXfNXzeBsrkcsJw6JNFF-212" value="Полнота (Recall / Чувствительность)" style="rounded=1;whiteSpace=wrap;html=1;" parent="1" vertex="1">
          <mxGeometry x="1000" y="1420" width="120" height="40" as="geometry" />
        </mxCell>
        <mxCell id="bXfNXzeBsrkcsJw6JNFF-242" style="edgeStyle=orthogonalEdgeStyle;rounded=0;orthogonalLoop=1;jettySize=auto;html=1;exitX=0.5;exitY=1;exitDx=0;exitDy=0;entryX=0.5;entryY=0;entryDx=0;entryDy=0;" parent="1" source="bXfNXzeBsrkcsJw6JNFF-214" target="bXfNXzeBsrkcsJw6JNFF-241" edge="1">
          <mxGeometry relative="1" as="geometry" />
        </mxCell>
        <mxCell id="bXfNXzeBsrkcsJw6JNFF-214" value="Метрики качества" style="rounded=1;whiteSpace=wrap;html=1;" parent="1" vertex="1">
          <mxGeometry x="1000" y="1240" width="120" height="40" as="geometry" />
        </mxCell>
        <mxCell id="bXfNXzeBsrkcsJw6JNFF-230" style="edgeStyle=orthogonalEdgeStyle;rounded=0;orthogonalLoop=1;jettySize=auto;html=1;exitX=1;exitY=0.5;exitDx=0;exitDy=0;entryX=0;entryY=0.5;entryDx=0;entryDy=0;" parent="1" source="bXfNXzeBsrkcsJw6JNFF-216" target="bXfNXzeBsrkcsJw6JNFF-229" edge="1">
          <mxGeometry relative="1" as="geometry" />
        </mxCell>
        <mxCell id="bXfNXzeBsrkcsJw6JNFF-238" style="edgeStyle=orthogonalEdgeStyle;rounded=0;orthogonalLoop=1;jettySize=auto;html=1;exitX=0.5;exitY=1;exitDx=0;exitDy=0;entryX=0.5;entryY=0;entryDx=0;entryDy=0;" parent="1" source="bXfNXzeBsrkcsJw6JNFF-216" target="bXfNXzeBsrkcsJw6JNFF-233" edge="1">
          <mxGeometry relative="1" as="geometry" />
        </mxCell>
        <mxCell id="bXfNXzeBsrkcsJw6JNFF-216" value="F1-мера" style="rounded=1;whiteSpace=wrap;html=1;" parent="1" vertex="1">
          <mxGeometry x="1000" y="1480" width="120" height="40" as="geometry" />
        </mxCell>
        <mxCell id="bXfNXzeBsrkcsJw6JNFF-221" value="Ложно-отрицательная (FN)" style="rounded=1;whiteSpace=wrap;html=1;" parent="1" vertex="1">
          <mxGeometry x="840" y="1360" width="120" height="40" as="geometry" />
        </mxCell>
        <mxCell id="bXfNXzeBsrkcsJw6JNFF-225" value="Точность (Precision)" style="rounded=1;whiteSpace=wrap;html=1;" parent="1" vertex="1">
          <mxGeometry x="1160" y="1420" width="120" height="40" as="geometry" />
        </mxCell>
        <mxCell id="bXfNXzeBsrkcsJw6JNFF-229" value="F-бета мера" style="rounded=1;whiteSpace=wrap;html=1;" parent="1" vertex="1">
          <mxGeometry x="1160" y="1480" width="120" height="40" as="geometry" />
        </mxCell>
        <mxCell id="bXfNXzeBsrkcsJw6JNFF-231" style="edgeStyle=orthogonalEdgeStyle;rounded=0;orthogonalLoop=1;jettySize=auto;html=1;exitX=0.5;exitY=1;exitDx=0;exitDy=0;entryX=0.5;entryY=0;entryDx=0;entryDy=0;" parent="1" source="bXfNXzeBsrkcsJw6JNFF-233" target="bXfNXzeBsrkcsJw6JNFF-235" edge="1">
          <mxGeometry relative="1" as="geometry" />
        </mxCell>
        <mxCell id="bXfNXzeBsrkcsJw6JNFF-232" style="edgeStyle=orthogonalEdgeStyle;rounded=0;orthogonalLoop=1;jettySize=auto;html=1;exitX=1;exitY=0.5;exitDx=0;exitDy=0;entryX=0;entryY=0.5;entryDx=0;entryDy=0;" parent="1" source="bXfNXzeBsrkcsJw6JNFF-233" target="bXfNXzeBsrkcsJw6JNFF-236" edge="1">
          <mxGeometry relative="1" as="geometry" />
        </mxCell>
        <mxCell id="bXfNXzeBsrkcsJw6JNFF-233" value="Чувствительность&lt;div&gt;(= полнота)&lt;/div&gt;" style="rounded=1;whiteSpace=wrap;html=1;" parent="1" vertex="1">
          <mxGeometry x="1000" y="1540" width="120" height="40" as="geometry" />
        </mxCell>
        <mxCell id="bXfNXzeBsrkcsJw6JNFF-240" style="edgeStyle=orthogonalEdgeStyle;rounded=0;orthogonalLoop=1;jettySize=auto;html=1;exitX=1;exitY=0.5;exitDx=0;exitDy=0;entryX=0;entryY=0.5;entryDx=0;entryDy=0;" parent="1" source="bXfNXzeBsrkcsJw6JNFF-235" target="bXfNXzeBsrkcsJw6JNFF-239" edge="1">
          <mxGeometry relative="1" as="geometry" />
        </mxCell>
        <mxCell id="bXfNXzeBsrkcsJw6JNFF-235" value="ROC-кривая / AUC" style="rounded=1;whiteSpace=wrap;html=1;" parent="1" vertex="1">
          <mxGeometry x="1000" y="1600" width="120" height="40" as="geometry" />
        </mxCell>
        <mxCell id="bXfNXzeBsrkcsJw6JNFF-236" value="Избирательность" style="rounded=1;whiteSpace=wrap;html=1;" parent="1" vertex="1">
          <mxGeometry x="1160" y="1540" width="120" height="40" as="geometry" />
        </mxCell>
        <mxCell id="bXfNXzeBsrkcsJw6JNFF-239" value="Регулирование порога" style="rounded=1;whiteSpace=wrap;html=1;" parent="1" vertex="1">
          <mxGeometry x="1160" y="1600" width="120" height="40" as="geometry" />
        </mxCell>
        <mxCell id="bXfNXzeBsrkcsJw6JNFF-243" style="edgeStyle=orthogonalEdgeStyle;rounded=0;orthogonalLoop=1;jettySize=auto;html=1;exitX=0.5;exitY=1;exitDx=0;exitDy=0;entryX=0.5;entryY=0;entryDx=0;entryDy=0;" parent="1" source="bXfNXzeBsrkcsJw6JNFF-241" target="bXfNXzeBsrkcsJw6JNFF-210" edge="1">
          <mxGeometry relative="1" as="geometry" />
        </mxCell>
        <mxCell id="bXfNXzeBsrkcsJw6JNFF-241" value="Матрица неточностей (Confusion matrix)" style="rounded=1;whiteSpace=wrap;html=1;" parent="1" vertex="1">
          <mxGeometry x="1000" y="1300" width="120" height="40" as="geometry" />
        </mxCell>
        <mxCell id="bXfNXzeBsrkcsJw6JNFF-245" value="Персептрон" style="rounded=1;whiteSpace=wrap;html=1;fillColor=#ffe6cc;strokeColor=#d79b00;" parent="1" vertex="1">
          <mxGeometry x="680" y="680" width="120" height="40" as="geometry" />
        </mxCell>
      </root>
    </mxGraphModel>
  </diagram>
</mxfile>
